<svg width="370" height="364" viewBox="0 0 370 364" fill="none" xmlns="http://www.w3.org/2000/svg">
<g id="Frame 3">
<path id="Vector" d="M354.291 143.71C351.218 129.692 356.856 115.466 360.436 101.57C366.512 77.9574 366.089 37.3073 338.628 26.2153C332.529 23.7573 325.7 23.9954 319.156 24.679C298.209 26.9835 278.36 32.4987 257.174 29.4108C237.341 26.4726 217.876 21.4413 199.103 14.4013C83.2132 -28.7837 42.9779 37.4148 40.735 53.1694C38.492 68.924 32.7693 84.7862 21.2779 95.8244C7.5973 108.96 14.3646 121.887 4.9933 138.364C-0.95212 148.834 -0.806177 161.931 2.99613 173.345L354.291 143.71Z" fill="#FFC966"/>
<path id="Vector_2" d="M2.97253 173.345C9.23289 192.142 18.9269 203.894 33.0299 217.659C42.1939 226.6 73.3344 238.914 87.4067 255.237C93.8054 262.649 96.563 270.277 100.757 278.665C125.491 328.041 174.675 341.983 225.419 342.367C258.58 342.621 312.695 308.569 329.702 291.048C371.688 247.786 359.967 169.896 354.282 143.71C354.282 143.71 238.293 136.213 192.527 58.5233C154.957 161.078 2.97253 173.345 2.97253 173.345Z" fill="#FFBB40"/>
<path id="Vector_3" d="M219.827 91.2922C209.06 81.8752 199.849 70.8158 192.535 58.5233C188.132 70.5117 181.988 81.7861 174.299 91.9835C175.766 90.7852 177.825 90.14 179.3 88.911C179.363 91.0708 178.76 93.1976 177.571 95.0023C179.519 93.84 181.052 92.0965 181.957 90.0171C182.465 91.9724 182.504 94.0198 182.073 95.9932C183.768 94.4351 185.071 92.4978 185.875 90.3397L186.021 95.3864C187.055 94.2451 187.668 92.784 187.757 91.2461L188.694 95.9318L190.1 91.7454C190.352 93.3513 190.858 94.9069 191.598 96.3543L191.866 91.9298C192.42 93.8011 193.274 95.5703 194.394 97.1685L194.97 92.1833C195.146 94.1055 195.538 96.0019 196.137 97.8368C196.634 96.4368 197.015 94.998 197.274 93.5352L199.709 98.1056L200.185 91.1923C201.439 93.1978 202.863 95.0918 204.441 96.8535C204.394 94.7201 204.181 92.5936 203.803 90.4933C204.656 92.7216 206.244 94.5917 208.305 95.7935C208.027 94.0666 207.4 92.4146 206.461 90.9389C207.807 92.531 209.39 93.9067 211.154 95.0177L209.127 90.3551C210.458 92.2711 212.387 93.6919 214.611 94.3955L212.506 90.309C213.963 92.0926 215.918 93.4027 218.121 94.0729C217.121 92.8724 216.001 91.776 214.78 90.8006C216.455 91.4458 218.129 90.6777 219.827 91.2922Z" fill="#FFD891"/>
<path id="Vector_4" d="M319.255 136.981C319.155 136.651 326.937 141.767 330.509 145.354C334.08 148.941 342.876 162.376 352.362 160.832C363.055 159.089 352.239 150.401 352.239 150.401C341.854 140.56 330.188 132.165 317.558 125.444L310.514 119.23C309.584 117.501 306.512 113.661 305.621 111.94C305.26 111.256 304.515 110.465 303.885 110.903C303.746 111.036 303.636 111.195 303.562 111.373C303.488 111.55 303.451 111.74 303.455 111.932C303.178 114.321 304.691 114.836 304.415 117.217C303.193 115.543 301.934 113.469 300.059 112.608C299.499 112.339 296.495 107.27 294.682 109.129C292.862 107.201 290.842 108.053 290.842 109.29C290.895 110.145 291.159 110.974 291.61 111.702C291.432 112.764 291.678 113.853 292.294 114.736C292.294 114.736 292.04 117.263 292.939 118.216C295.842 121.288 295.597 122.763 298.201 125.475L319.255 136.981Z" fill="white"/>
<path id="Vector_5" d="M280.91 155.785C282.769 155.87 284.137 154.533 290.128 156.223C290.128 156.223 312.619 160.202 321.177 159.081C329.734 157.959 345.312 163.336 342.853 162.376C340.395 161.416 341.317 158.835 341.317 158.835C337.369 155.501 356.488 154.725 352.194 150.385C356.035 143.702 360.943 160.417 368.018 165.379C373.295 169.09 366.028 175.957 362.817 176.902C354.168 179.421 347.662 185.29 336.993 183.369C326.016 181.395 278.76 188.454 278.76 188.454L280.864 155.778" fill="white"/>
<path id="Vector_6" d="M159.797 318.524C158.952 325.437 154.735 362.155 151.348 361.947C148.275 361.763 172.164 174.636 173.017 169.09C173.057 168.834 173.196 168.604 173.405 168.45C173.613 168.296 173.874 168.23 174.131 168.268C175.168 168.414 176.435 168.66 177.203 168.698C177.366 168.681 177.53 168.702 177.684 168.76C177.837 168.817 177.975 168.909 178.087 169.028C178.206 169.267 178.228 169.542 178.148 169.796C177.464 174.175 165.604 270.8 159.797 318.524Z" fill="white"/>
<path id="Vector_7" d="M242.695 192.011C225.542 199.478 205.824 201.536 187.25 203.879C186.313 202.043 187.297 200.299 185.768 198.924C185.207 198.488 184.561 198.174 183.871 198.003C183.103 197.749 182.58 196.943 180.921 195.813C180.084 195.253 178.056 195.268 177.341 194.761C176.519 194.107 175.824 193.308 175.291 192.403L174.737 196.797L169.399 195.084C168.078 194.992 167.563 194.976 167.248 195.852C166.933 196.728 167.117 197.741 166.795 198.625C166.472 199.508 165.512 200.384 165.612 201.398C165.771 202.015 166.031 202.601 166.38 203.134C166.964 204.363 166.641 205.799 166.541 207.151C166.442 208.503 166.733 210.124 167.962 210.715C168.412 210.898 168.891 210.996 169.376 211.007C172.517 211.315 175.61 211.99 178.594 213.02C180.806 213.665 184.608 213.957 185.876 212.252C203.935 214.802 234.053 211.737 252.297 211.591L242.695 192.011Z" fill="white"/>
<path id="Vector_8" d="M273.013 186.926C268.643 189.23 265.601 202.965 259.509 208.211C251.605 216.154 248.056 209.64 246.09 206.16C242.349 190.083 237.018 188.977 252.166 188.977C255.238 187.218 257.451 166.486 261.384 162.507C264.333 159.526 265.816 155.594 273.351 154.533C273.351 154.533 279.197 152.298 279.197 168.26C279.197 184.222 273.013 186.926 273.013 186.926Z" fill="white"/>
<path id="Vector_9" d="M296.595 161.009L318.495 158.812C318.495 158.812 320.569 157.982 325.547 159.019C330.516 164.827 329.894 174.152 329.894 174.152L320.477 245.643C319.87 255.298 312.096 261.006 314.562 270.346C322.735 301.379 350.573 333.273 350.573 363.238L301.596 363.307C298.377 358.345 313.84 356.017 312.534 350.248C308.202 331.122 303.401 317.948 299.407 298.745C297.724 290.656 297.018 276.468 295.359 268.403C294.905 266.206 291.518 255.275 293.907 253.685C281.893 261.589 264.986 268.649 260.109 283.443C256.875 293.252 259.578 303.684 262.244 313.285C265.002 323.187 267.682 333.088 269.841 343.143C271.3 349.941 271.938 363.491 271.938 363.491L212.791 363.691C210.671 356.01 228.215 358.583 231.388 348.589C234.645 336.998 239.837 290.917 240.152 278.888C240.29 273.642 239.906 268.134 242.165 263.418C245.237 256.996 251.789 252.548 255.653 246.519C263.65 234.059 263.45 217.406 263.45 203.218C266.661 197.38 269.948 188.57 273.044 186.918C273.044 186.918 278.552 159.711 273.374 154.526C273.374 153.051 281.363 153.758 281.363 153.758C281.363 153.758 288.952 154.741 290.181 156.193C290.281 157.606 292.132 160.418 296.595 161.009Z" fill="#9385FF"/>
<path id="Vector_10" d="M322.735 248.477C311.375 250.905 294.644 249.683 284.597 246.941C275.08 244.337 279.612 206.191 281.325 188.747C281.932 182.932 284.774 174.344 284.774 174.344C284.774 174.344 287.163 160.894 277.277 153.827C277.277 151.837 284.367 153.45 286.679 156.715C288.991 159.98 289.152 161.063 290.865 164.512C295.973 164.204 322.359 167.431 322.359 167.431C323.073 166.371 320.761 157.86 320.761 157.86C327.805 159.949 326.968 170.096 326.968 170.096C336.37 171.97 333.474 180.743 333.39 187.187C333.098 208.257 332.744 246.334 322.735 248.477Z" fill="#B3A8FF"/>
<path id="Vector_11" d="M292.685 153.504C292.009 145.193 300.021 130.506 304.407 123.416C305.79 121.189 307.387 118.807 309.907 118.039C312.426 117.271 315.084 118.508 317.45 119.675C320.215 121.05 325.9 130.26 325.5 133.333C325.201 135.829 325.324 155.056 324.287 158.72C323.28 162.246 325.124 200.392 325.516 202.596C326.729 209.425 323.979 209.663 323.979 215.155C323.979 216.73 325.792 226.785 324.348 227.446C323.488 227.814 314.623 227.085 313.686 227.008C307.541 226.47 301.104 221.208 296.211 215.609C294.675 213.888 290.389 206.621 290.389 201.874C290.389 199.439 291.51 191.497 291.787 189.069C292.777 180.282 285.864 175.642 288.975 167.354C289.851 165.049 291.28 162.975 292.232 160.702C293.185 158.428 293.715 155.755 292.685 153.504Z" fill="#1C001A"/>
<path id="Vector_12" d="M169.537 194.769L179.723 198.694L176.912 197.549C176.378 197.331 175.932 196.941 175.643 196.443C175.354 195.944 175.239 195.363 175.314 194.792L175.775 191.435" stroke="#FFBB40" stroke-width="0.768142" stroke-linecap="round" stroke-linejoin="round"/>
<path id="Vector_13" d="M341.362 161.585C345.02 162.645 348.581 164.012 352.009 165.672" stroke="#FFBB40" stroke-width="0.768142" stroke-miterlimit="10" stroke-linecap="round"/>
<path id="Vector_14" d="M341.079 159.181C342.863 159.24 344.646 159.009 346.356 158.497" stroke="#FFBB40" stroke-width="0.768142" stroke-miterlimit="10" stroke-linecap="round"/>
<path id="Vector_15" d="M249.669 195.084C249.661 192.446 250.183 189.834 251.206 187.402" stroke="#FFBB40" stroke-width="0.768142" stroke-miterlimit="10" stroke-linecap="round"/>
<path id="Vector_16" d="M252.304 188.17C252.304 188.17 250.93 192.994 253.772 196.367" stroke="#FFBB40" stroke-width="0.768142" stroke-miterlimit="10" stroke-linecap="round"/>
<path id="Vector_17" d="M257.781 210.485C252.75 214.541 249.716 211.891 247.742 208.949C246.732 207.404 245.986 205.7 245.537 203.91C242.357 191.727 238.831 188.747 247.404 188.34" stroke="#FFBB40" stroke-width="0.768142" stroke-miterlimit="10" stroke-linecap="round"/>
<path id="Vector_18" d="M166.081 207.074C165.988 207.561 166.004 208.063 166.128 208.543C166.253 209.023 166.482 209.47 166.801 209.85C167.119 210.23 167.518 210.535 167.969 210.742C168.42 210.948 168.911 211.052 169.407 211.046C171.281 211.207 173.102 212.06 174.976 212.474" stroke="#FFBB40" stroke-width="0.768142" stroke-miterlimit="10" stroke-linecap="round"/>
<path id="Vector_19" d="M341.025 158.981C337.077 155.647 356.88 154.549 352.24 149.94" stroke="#FFBB40" stroke-width="0.768142" stroke-miterlimit="10" stroke-linecap="round"/>
<path id="Vector_20" d="M113.493 141.229C113.493 141.229 105.881 123.961 107.894 114.644C116.228 109.981 125.914 109.19 141.584 109.121C141.492 112.017 139.964 115.266 137.675 118.561C129.955 129.669 113.493 141.229 113.493 141.229Z" fill="#9385FF"/>
<path id="Vector_21" d="M114.416 138.902C113.647 134.615 115.376 130.291 117.419 126.45C119.462 122.609 121.913 118.869 122.796 114.613C123.679 110.358 122.589 105.288 118.871 103.014" stroke="#9E91FF" stroke-width="0.768142" stroke-linejoin="round"/>
<path id="Vector_22" d="M7.95822 185.52C4.80115 179.037 1.04494 171.356 0.276794 162.084C5.32349 158.497 11.8604 154.741 15.9315 151.415C41.7181 130.375 64.2323 100.218 68.0269 96.1086C70.7345 93.0968 73.8996 90.5305 77.406 88.504C95.4343 78.3107 116.105 89.3335 133.311 102.492C136.169 104.681 138.934 106.932 141.577 109.144C125.906 109.213 116.228 110.004 107.886 114.667C103.561 117.094 99.5899 120.559 95.3498 125.513C95.3498 125.513 88.8666 120.904 84.7263 119.668C83.0364 119.038 91.5398 130.229 90.7793 131.251C89.4274 133.059 88.0243 135.018 86.5699 137.127C85.9631 138.003 85.3101 138.863 84.6111 139.724C67.4739 160.794 29.0284 172.746 7.95822 185.52Z" fill="#9E91FF"/>
<g id="Group 1">
<path id="Vector_23" d="M54.1935 27.1064C58.9099 26.5226 61.6368 27.9513 62.0516 29.9562C62.8198 33.5511 61.1529 36.4086 60.7074 47.5543C53.5022 46.4943 51.4052 35.1335 46.4046 33.1593C45.0526 32.6216 44.9912 36.0015 44.7838 34.5727C44.6456 33.9168 44.6456 33.2392 44.7838 32.5832C45.2447 30.9087 47.2188 30.2788 48.9087 29.864C48.8933 29.864 50.4373 27.9283 54.1935 27.1064Z" fill="#7A6FD4"/>
<path id="Vector_24" d="M59.5696 46.1408C58.9378 45.2686 58.4215 44.3185 58.0333 43.314C57.0885 40.7868 57.004 38.0215 56.2205 35.4329C55.437 32.8442 53.6472 30.2633 50.9818 29.8408" stroke="#8679E8" stroke-width="0.576107" stroke-miterlimit="10" stroke-linecap="round"/>
<path id="Vector_25" d="M0.538151 165.234L1.30629 168.406C4.46336 165.564 26.993 142.136 30.9259 137.988C37.2323 128.878 48.7237 99.0583 51.8885 78.6103C53.5707 67.7565 51.6273 47.1703 53.7781 31.8228C53.9624 30.54 58.7326 23.934 62.0433 29.9485C60.6914 23.258 40.5353 28.5428 36.733 31.6384C23.0063 42.7765 15.3018 64.4227 10.7237 80.7995C4.32509 103.636 2.65822 126.22 0.323073 149.64C-0.0681658 154.052 -0.104128 158.489 0.215533 162.906C0.262087 163.689 0.369956 164.468 0.538151 165.234Z" fill="#9385FF"/>
<path id="Vector_26" d="M45.7279 28.7423C34.6897 40.564 24.6961 92.1909 20.6019 118.131C20.1607 121.682 19.4415 125.193 18.4511 128.632C17.2132 132.073 15.6708 135.397 13.8423 138.564C9.54837 146.568 5.76143 155.947 6.03028 162.737" stroke="#A99DFF" stroke-width="0.768142" stroke-miterlimit="10" stroke-linecap="round"/>
</g>
<path id="Vector_27" d="M119.086 94.1192C107.249 91.8148 91.179 99.0276 82.9829 107.9C74.7868 116.772 68.9105 127.564 60.4763 136.175C50.5596 146.299 38.3308 153.75 25.6949 160.156C22.6223 161.731 8.8879 169.62 5.78461 171.195" stroke="#9385FF" stroke-width="0.768142" stroke-miterlimit="10" stroke-linecap="round"/>
<path id="Vector_28" d="M118.701 221.792C115.429 208.411 106.711 197.334 97.0859 187.832C88.1293 178.991 78.95 168.191 65.6765 167.861C51.4275 167.507 32.8999 166.755 19.6725 172.815C14.7999 175.114 10.2242 177.995 6.04565 181.395C7.56323 184.909 9.31069 188.32 11.2767 191.604C15.2864 198.294 15.6398 199.285 22.8603 198.694C33.5221 197.834 46.8494 199.808 55.2913 205.937C74.9864 220.225 95.6879 233.898 95.734 258.64C95.734 269.97 90.7257 293.798 88.2062 304.836C88.2522 304.659 94.7507 302.301 95.4958 301.832C98.2076 300.072 100.555 297.806 102.409 295.157C106.25 289.865 108.746 283.505 111.181 277.49C115.944 265.745 120.53 255.882 120.53 243.208C120.553 236.018 120.407 228.767 118.701 221.792Z" fill="#9385FF"/>
<path id="Vector_29" d="M10.7775 184.422C27.0851 174.06 39.7979 175.335 49.5456 178.346C61.0217 181.879 71.3301 188.547 80.4096 196.397C90.6643 205.262 103.861 220.701 107.563 233.744C109.722 241.349 108.815 264.071 103.262 284.549C102.048 289.043 94.3206 301.372 89.8731 302.731" stroke="#A99DFF" stroke-width="0.768142" stroke-miterlimit="10" stroke-linecap="round"/>
<path id="Vector_30" d="M76.7301 245.543C76.7301 245.543 78.4661 240.781 68.8106 230.948C53.2711 215.171 33.5452 196.428 22.8603 198.686C16.1544 200.1 13.4659 195.084 13.4659 195.084C18.7431 203.026 25.2108 210.04 33.0305 217.675C40.2818 224.742 61.2982 233.929 76.7301 245.543Z" fill="#9E91FF"/>
<path id="linea2" d="M70 69C77.5 76.1667 98.9 86.7 124.5 71.5C156.5 52.5 173.5 49 223 58.5C275.5 68.5758 282.5 36.5 318.5 36" stroke="#FFEDCC" stroke-width="2" stroke-linecap="round"/>
<path id="linea1" d="M130.5 92C138.333 84.3333 170.7 67.3 213.5 76.5C267 88 267 66.5 298 61.5C323.717 57.3521 339.167 70.8333 342 76.5" stroke="#FFEDCC" stroke-width="2" stroke-linecap="round"/>
</g>
</svg>
